# File created by Blade
# Date/Time:  Thu Sep 25 19:26:26 2014
# Frame Rate: 120.000 fps
#------------------------------------------------------
:FULLY-SPECIFIED
:DEGREES
636
root -0.100685 31.856637 -11.995102 109.313746 7.309094 5.403153
Spine 47.078106 3.330308 17.144638
Head -35.916158 -7.840104 14.599943
LeftShoulder 1.186856 -32.274573 48.158932
LeftArm 35.666435 -28.439907 -32.629594
LeftForeArm 61.710183 -0.000000 66.073721
LeftHand -39.796297 -0.000000 56.410636
LeftHandThumb1 -26.253704 0.000000 33.147579
RightShoulder -9.739353 66.523535 -55.918165
RightArm 9.040477 12.708605 48.580121
RightForeArm -52.775161 -0.000000 62.810496
RightHand -9.822394 -0.000000 -55.450189
RightHandThumb1 -24.326973 -0.000000 -32.862282
LeftUpLeg -113.466376 5.460106 -9.488021
LeftLeg -3.856893 -0.000000 0.000000
LeftFoot 4.060396 5.025617 -27.709765
LeftToeBase 9.395170 -0.000000 -0.000000
RightUpLeg -115.679783 -17.119198 21.865567
RightLeg -0.613739 -0.000000 0.000000
RightFoot 3.909022 -13.720676 15.340389
RightToeBase 3.063963 -0.000000 -0.000000
637
root -0.071974 31.856910 -11.978958 109.585539 7.495727 5.507629
Spine 47.097471 3.174937 17.205441
Head -35.361041 -7.866903 14.645865
LeftShoulder 1.218777 -32.093175 48.206024
LeftArm 35.221625 -29.470021 -32.833683
LeftForeArm 62.315838 -0.000000 67.138809
LeftHand -39.767848 -0.000000 55.451428
LeftHandThumb1 -26.253704 0.000000 33.147579
RightShoulder -9.604433 66.555250 -55.831762
RightArm 8.810312 12.919693 48.220313
RightForeArm -52.731939 -0.000000 63.326755
RightHand -9.956024 -0.000000 -55.734296
RightHandThumb1 -24.326973 -0.000000 -32.862282
LeftUpLeg -113.711645 5.267998 -9.416491
LeftLeg -3.850331 -0.000000 0.000000
LeftFoot 4.097537 4.879206 -27.538523
LeftToeBase 9.325871 -0.000000 -0.000000
RightUpLeg -115.876455 -17.188730 22.008932
RightLeg -0.572953 -0.000000 0.000000
RightFoot 3.827900 -13.872473 15.395892
RightToeBase 3.100080 -0.000000 -0.000000
638
root -0.036865 31.853977 -11.957475 109.820772 7.632148 5.646059
Spine 47.137625 2.946321 17.258464
Head -34.686109 -8.001702 14.567924
LeftShoulder 1.303379 -31.914756 48.105141
LeftArm 34.821105 -30.485987 -32.899310
LeftForeArm 62.968811 -0.000000 68.143278
LeftHand -40.137286 -0.000000 54.547107
LeftHandThumb1 -26.253704 0.000000 33.147579
RightShoulder -9.505001 66.658577 -55.809336
RightArm 8.594103 13.100758 47.916369
RightForeArm -52.628994 -0.000000 63.739220
RightHand -9.942345 -0.000000 -55.933641
RightHandThumb1 -24.326973 -0.000000 -32.862282
LeftUpLeg -113.878478 5.029100 -9.373084
LeftLeg -3.862040 -0.000000 0.000000
LeftFoot 4.095349 4.749964 -27.378300
LeftToeBase 9.230767 -0.000000 -0.000000
RightUpLeg -116.078089 -17.304922 22.183875
RightLeg -0.517754 -0.000000 0.000000
RightFoot 3.718657 -13.927898 15.534773
RightToeBase 3.125134 -0.000000 -0.000000
639
root -0.013543 31.853824 -11.945142 110.148338 7.839445 5.731962
Spine 47.037971 2.817903 17.294325
Head -33.947803 -7.985831 14.616741
LeftShoulder 1.332464 -31.717425 48.099399
LeftArm 34.406983 -31.450815 -33.018555
LeftForeArm 63.845931 -0.000000 69.063682
LeftHand -40.161933 -0.000000 53.758529
LeftHandThumb1 -26.253704 0.000000 33.147579
RightShoulder -9.368667 66.692414 -55.660758
RightArm 8.509804 13.255259 47.660223
RightForeArm -52.738038 0.000000 64.040351
RightHand -9.771656 -0.000000 -56.170880
RightHandThumb1 -24.326973 -0.000000 -32.862282
LeftUpLeg -114.214376 4.865724 -9.290280
LeftLeg -3.807657 -0.000000 0.000000
LeftFoot 4.099038 4.633902 -27.300913
LeftToeBase 9.276037 -0.000000 -0.000000
RightUpLeg -116.331573 -17.315818 22.364051
RightLeg -0.466960 -0.000000 0.000000
RightFoot 3.627069 -14.038887 15.655031
RightToeBase 3.114302 -0.000000 -0.000000
640
root 0.014553 31.856451 -11.943334 110.555257 8.072082 5.889080
Spine 46.751850 2.696178 17.438151
Head -33.061138 -8.088546 14.720114
LeftShoulder 1.441864 -31.584132 48.109925
LeftArm 34.022772 -32.330645 -33.252073
LeftForeArm 64.283686 -0.000000 69.978314
LeftHand -40.137285 -0.000000 52.955509
LeftHandThumb1 -26.253704 0.000000 33.147579
RightShoulder -8.913317 66.596146 -55.317062
RightArm 8.250137 13.408115 47.240931
RightForeArm -52.616031 -0.000000 64.468402
RightHand -9.691180 -0.000000 -56.348695
RightHandThumb1 -24.326973 -0.000000 -32.862282
LeftUpLeg -114.635301 4.637319 -9.122206
LeftLeg -3.732158 -0.000000 0.000000
LeftFoot 4.131773 4.577614 -27.195222
LeftToeBase 9.312530 -0.000000 -0.000000
RightUpLeg -116.706846 -17.374043 22.594736
RightLeg -0.370498 -0.000000 0.000000
RightFoot 3.538719 -14.176786 15.933811
RightToeBase 2.997726 -0.000000 -0.000000
641
root 0.038137 31.856303 -11.928719 110.855136 8.256086 6.000190
Spine 46.775283 2.569410 17.499873
Head -32.593177 -8.127932 14.845052
LeftShoulder 1.294519 -31.811067 48.268161
LeftArm 33.502559 -33.023681 -33.395017
LeftForeArm 64.313514 0.000000 70.866151
LeftHand -39.948072 0.000000 52.231713
LeftHandThumb1 -26.253704 0.000000 33.147579
RightShoulder -9.167232 66.553546 -55.589880
RightArm 8.179572 13.577905 47.018406
RightForeArm -52.500429 0.000000 64.778721
RightHand -9.634865 -0.000000 -56.693575
RightHandThumb1 -24.326973 -0.000000 -32.862282
LeftUpLeg -114.909905 4.466616 -9.020063
LeftLeg -3.709978 -0.000000 0.000000
LeftFoot 4.146009 4.493699 -27.138982
LeftToeBase 9.273723 -0.000000 -0.000000
RightUpLeg -116.955109 -17.391119 22.813198
RightLeg -0.325634 -0.000000 0.000000
RightFoot 3.446158 -14.268139 15.836385
RightToeBase 3.204857 -0.000000 -0.000000
642
root 0.058975 31.856798 -11.910553 111.204770 8.407008 6.068789
Spine 46.801739 2.546654 17.482242
Head -32.628910 -7.901274 15.313843
LeftShoulder 0.973592 -31.987462 48.540609
LeftArm 33.179484 -33.566930 -33.548215
LeftForeArm 64.506605 -0.000000 71.654628
LeftHand -40.151898 -0.000000 51.746922
LeftHandThumb1 -26.253704 0.000000 33.147579
RightShoulder -9.753060 66.501459 -55.997997
RightArm 8.287732 13.677419 46.905979
RightForeArm -52.456770 -0.000000 65.038371
RightHand -9.490721 -0.000000 -56.959766
RightHandThumb1 -24.326973 -0.000000 -32.862282
LeftUpLeg -115.223500 4.325209 -8.969086
LeftLeg -3.715443 -0.000000 0.000000
LeftFoot 4.173327 4.387746 -27.071899
LeftToeBase 9.208776 -0.000000 -0.000000
RightUpLeg -117.225795 -17.370970 22.964543
RightLeg -0.292122 -0.000000 0.000000
RightFoot 3.388506 -14.382547 15.865026
RightToeBase 3.193494 -0.000000 -0.000000
643
root 0.080228 31.856721 -11.892006 111.554335 8.542729 6.143216
Spine 46.814002 2.583362 17.469989
Head -32.606286 -7.698284 15.862915
LeftShoulder 0.693334 -32.287215 48.894570
LeftArm 32.775329 -34.011483 -33.707484
LeftForeArm 64.698006 -0.000000 72.405788
LeftHand -40.427067 -0.000000 51.189893
LeftHandThumb1 -26.253704 0.000000 33.147579
RightShoulder -10.095205 66.371087 -56.225173
RightArm 8.228588 13.863242 46.649807
RightForeArm -52.375535 -0.000000 65.378442
RightHand -9.722369 -0.000000 -57.672634
RightHandThumb1 -24.326973 -0.000000 -32.862282
LeftUpLeg -115.524056 4.187111 -8.903134
LeftLeg -3.731966 -0.000000 0.000000
LeftFoot 4.171191 4.312850 -27.027710
LeftToeBase 9.232916 -0.000000 -0.000000
RightUpLeg -117.487490 -17.376585 23.079216
RightLeg -0.267645 -0.000000 0.000000
RightFoot 3.326050 -14.500880 16.078891
RightToeBase 3.048642 -0.000000 -0.000000
644
root 0.101492 31.856105 -11.870760 111.881579 8.661491 6.210677
Spine 46.845609 2.574037 17.430851
Head -32.517508 -7.521175 16.306869
LeftShoulder 0.397582 -32.392468 49.144136
LeftArm 32.541362 -34.492831 -33.749687
LeftForeArm 64.777984 -0.000000 73.011783
LeftHand -40.531306 0.000000 51.445079
LeftHandThumb1 -26.253704 0.000000 33.147579
RightShoulder -10.523656 66.471091 -56.599174
RightArm 7.981673 13.936624 46.418907
RightForeArm -52.272921 -0.000000 65.778810
RightHand -9.605543 0.000000 -57.830249
RightHandThumb1 -24.326973 -0.000000 -32.862282
LeftUpLeg -115.783177 4.065727 -8.840221
LeftLeg -3.774723 -0.000000 0.000000
LeftFoot 4.182694 4.243266 -27.016227
LeftToeBase 9.166581 -0.000000 -0.000000
RightUpLeg -117.731485 -17.359145 23.221565
RightLeg -0.262653 -0.000000 0.000000
RightFoot 3.275759 -14.596371 16.118189
RightToeBase 3.043480 -0.000000 -0.000000
